<!-- icon666.com - MILLIONS vector ICONS FREE --><svg version="1.1" id="Capa_1" xmlns="http://www.w3.org/2000/svg" xmlns:xlink="http://www.w3.org/1999/xlink" x="0px" y="0px" viewBox="0 0 511.985 511.985" style="enable-background:new 0 0 511.985 511.985;" xml:space="preserve"><g><g><path d="M507.58,4.408c-5.873-5.873-15.42-5.873-21.293,0L4.405,486.291c-5.873,5.873-5.873,15.42,0,21.293 c2.952,2.921,6.807,4.397,10.662,4.397c3.855,0,7.71-1.476,10.632-4.397L507.58,25.702 C513.453,19.829,513.453,10.281,507.58,4.408z"></path></g></g><g><g><path d="M507.58,486.291L25.698,4.409c-5.873-5.873-15.42-5.873-21.293,0c-5.873,5.873-5.873,15.42,0,21.293l481.882,481.882 c2.951,2.921,6.807,4.397,10.662,4.397c3.855,0,7.71-1.476,10.632-4.397C513.453,501.711,513.453,492.164,507.58,486.291z"></path></g></g></svg>